<?xml version="1.0" encoding="UTF-8"?>
<svg version="1.1" xmlns="http://www.w3.org/2000/svg" width="500" height="500">
<path d="M0 0 C165 0 330 0 500 0 C500 165 500 330 500 500 C335 500 170 500 0 500 C0 335 0 170 0 0 Z " fill="#195970" transform="translate(0,0)"/>
<path d="M0 0 C8.7391704 0.44619004 17.38297531 1.35052769 26.0625 2.4375 C27.53203125 2.62082886 27.53203125 2.62082886 29.03125 2.80786133 C32.02306813 3.19003332 35.01161304 3.59190484 38 4 C39.0504248 4.13728516 40.10084961 4.27457031 41.18310547 4.41601562 C49.01559552 5.51258776 56.44703405 7.29021111 64 9.625 C65.1334082 9.97473877 66.26681641 10.32447754 67.43457031 10.68481445 C75.86988403 13.40049998 82.90943404 16.59935226 90 22 C91.0725 22.7425 92.145 23.485 93.25 24.25 C102.84475958 33.84475958 108.52951521 43.5959656 110 57 C110.51385254 56.48091064 111.02770508 55.96182129 111.55712891 55.42700195 C113.91039387 53.05281554 116.26765585 50.68263594 118.625 48.3125 C119.43324219 47.49587891 120.24148437 46.67925781 121.07421875 45.83789062 C130.07898475 36.79651989 130.07898475 36.79651989 134 34 C137 35 137 35 138.36279297 37.1862793 C139.04559326 38.61580933 139.04559326 38.61580933 139.7421875 40.07421875 C140.24862793 41.12681885 140.75506836 42.17941895 141.27685547 43.26391602 C141.80424316 44.39369873 142.33163086 45.52348145 142.875 46.6875 C143.41656738 47.83855225 143.95813477 48.98960449 144.51611328 50.17553711 C148.16131857 58.00857992 151.59958962 65.68553505 154 74 C154.23912109 74.82693359 154.47824219 75.65386719 154.72460938 76.50585938 C159.99821575 95.11322608 162.36674791 113.63580419 163.70947266 132.88916016 C164.88523258 155.25814484 164.88523258 155.25814484 175.94921875 173.859375 C180.51675043 177.66713302 185.66665946 180.12477252 191 182.6875 C191.9590625 183.15994141 192.918125 183.63238281 193.90625 184.11914062 C198.88265471 186.55607508 203.88274898 188.87491937 209 191 C204.82896988 192.39034337 202.18711073 190.74756298 198.31640625 189.1328125 C197.5534021 188.82288361 196.79039795 188.51295471 196.00427246 188.19363403 C193.51946013 187.18073516 191.04085466 186.15358816 188.5625 185.125 C186.85682415 184.42382589 185.15101332 183.72298005 183.44506836 183.02246094 C171.85661461 178.24864889 160.30920461 173.40833623 149 168 C148.13487793 167.58862793 147.26975586 167.17725586 146.37841797 166.75341797 C88.97416456 139.27622708 48.22787586 100.85383083 23.1965332 42.13964844 C17.21943649 28.12470691 10.71158567 15.07694734 1.43359375 2.94140625 C0 1 0 1 0 0 Z " fill="#52BBD5" transform="translate(30,186)"/>
<path d="M0 0 C-1.95363655 2.94353721 -3.91226117 5.87458301 -5.9375 8.76953125 C-15.53426767 22.9283987 -22.30665814 38.7400487 -29.125 54.375 C-42.31107562 84.47164527 -61.01485819 109.65917178 -87 130 C-87.98484375 130.79019531 -88.9696875 131.58039063 -89.984375 132.39453125 C-117.14842428 153.99558195 -149.01783598 169.11952454 -181.17041016 181.71508789 C-182.97131104 182.42072876 -182.97131104 182.42072876 -184.80859375 183.140625 C-186.57759033 183.83188477 -186.57759033 183.83188477 -188.38232422 184.53710938 C-190.92013423 185.56333138 -193.42021479 186.61474723 -195.91845703 187.72851562 C-196.55614517 188.01128357 -197.19383331 188.29405151 -197.85084534 188.58538818 C-199.62325172 189.37745247 -201.39005721 190.18201542 -203.15649414 190.98730469 C-206 192 -206 192 -209 191 C-208.09757568 190.59273682 -207.19515137 190.18547363 -206.26538086 189.76586914 C-202.87886715 188.22982118 -199.50764973 186.66238691 -196.13989258 185.08569336 C-194.68807098 184.41120225 -193.23237999 183.74496936 -191.77270508 183.08764648 C-181.27613498 178.35178392 -174.56544231 174.20431478 -169.29296875 163.55078125 C-168.92816406 162.48214844 -168.56335938 161.41351563 -168.1875 160.3125 C-167.80980469 159.25675781 -167.43210937 158.20101562 -167.04296875 157.11328125 C-164.36012053 147.66905685 -163.82444043 137.72267515 -163.36889648 127.96777344 C-161.92825907 97.44875199 -154.74706087 67.93628034 -140 41 C-138.647355 38.34253377 -137.32306024 35.67240645 -136 33 C-132.37874805 36.03002714 -128.87118461 39.06782581 -125.5625 42.4375 C-122.44819971 45.60804048 -119.1721895 48.53260578 -115.796875 51.421875 C-114.12659942 52.88881269 -112.55211328 54.40956293 -111 56 C-110.78085937 55.17757812 -110.56171875 54.35515625 -110.3359375 53.5078125 C-105.45176715 36.31394453 -96.1995123 24.80919091 -80.74316406 15.95751953 C-66.14433493 7.93838678 -50.06790099 5.68081556 -33.78515625 3.7265625 C-27.61675487 2.97906469 -21.49518065 1.99908392 -15.37768555 0.91381836 C-10.19122809 0.03851905 -5.26126836 -0.10896118 0 0 Z " fill="#52BCD5" transform="translate(470,186)"/>
<path d="M0 0 C4.98310775 3.96525033 8.99307435 8.11628483 12.75 13.25 C13.26022705 13.94182373 13.7704541 14.63364746 14.29614258 15.34643555 C35.45368547 44.49965638 50.08229344 77.03029115 45.5390625 113.72265625 C44.85762496 116.89334505 44.00039047 119.91514574 43 123 C42.81195801 123.61020996 42.62391602 124.22041992 42.43017578 124.84912109 C35.70088444 146.50384143 24.98987247 170.85348748 9.6328125 187.69921875 C5.27952741 193.36755871 6.10899026 200.68305081 6.125 207.5 C6.10684586 208.90889124 6.08603467 210.31775087 6.0625 211.7265625 C6.0155811 215.15164192 5.99554325 218.57466619 6 222 C3.69667836 218.54501753 2.92882877 215.22654818 2 211.25 C1.50202692 209.16473774 1.00063248 207.08068711 0.48681641 204.99926758 C0.03891525 203.15981793 -0.37664141 201.3125719 -0.7890625 199.46484375 C-2.31194369 195.10743855 -4.61624037 191.97192763 -7.375 188.3125 C-29.30909316 158.11198925 -49.54165887 122.0474377 -43.8125 83.625 C-38.90900048 53.98548685 -21.74517929 21.06451634 0 0 Z " fill="#F6BFD2" transform="translate(249,120)"/>
<path d="M0 0 C5.49176622 2.1706117 7.42944856 6.95998623 10 12 C13.39706119 20.07455313 14.1556215 28.093697 14.09765625 36.77734375 C14.0962413 37.58869278 14.09482635 38.40004181 14.09336853 39.23597717 C14.08781357 41.80319047 14.07526967 44.37031348 14.0625 46.9375 C14.05747917 48.68814977 14.05291729 50.43880093 14.04882812 52.18945312 C14.03785893 56.4596697 14.02062582 60.72981959 14 65 C15.44251791 62.96172522 16.87903715 60.91962918 18.3125 58.875 C18.71662109 58.30523437 19.12074219 57.73546875 19.53710938 57.1484375 C22.04180621 53.56448105 24.13495334 49.9715233 26 46 C28 48 28 48 28.5625 51.75 C28.35726621 59.74129082 23.88949363 67.56868575 18.82568359 73.58203125 C12.13172986 81.60992015 10.36940358 88.06346919 9.5 98.375 C9.35820312 99.68210937 9.21640625 100.98921875 9.0703125 102.3359375 C8.66173972 106.22123335 8.31744226 110.10627475 8 114 C7.90340088 115.16708496 7.80680176 116.33416992 7.70727539 117.53662109 C7.03071481 126.31016422 6.70070885 135.08123561 6.4375 143.875 C6.39413468 145.25651843 6.35051596 146.63802893 6.30664062 148.01953125 C6.20195256 151.34628541 6.09977505 154.6730955 6 158 C3.70762553 154.56143829 2.93007486 151.26895127 2 147.3125 C1.7525 146.28866211 1.7525 146.28866211 1.5 145.24414062 C1.16290076 143.84965589 0.83330184 142.45333939 0.51074219 141.05541992 C0.03511811 139.14132857 -0.56400609 137.25910121 -1.171875 135.3828125 C-2.71139838 129.21339896 -1.75375647 122.8259759 -1.25 116.5625 C-1.15047983 115.21481568 -1.05168825 113.86707737 -0.95361328 112.51928711 C-0.32433794 104.09781017 0.489043 95.71477009 1.6328125 87.34765625 C2.4217441 80.15495005 1.74728525 75.1875604 -1.0625 68.625 C-1.53623047 67.50182373 -1.53623047 67.50182373 -2.01953125 66.35595703 C-5.70766673 57.93873909 -10.92427966 51.90221129 -17.48828125 45.57421875 C-19.39742158 43.58614756 -20.74086373 41.4442057 -22 39 C-11.19781995 41.26369214 -3.29784838 45.73967688 3 55 C4.375 58.4375 4.375 58.4375 5 61 C8.56911008 41.29491323 10.7125561 17.4961518 0 0 Z " fill="#ED2B62" transform="translate(249,184)"/>
<path d="M0 0 C0.29362201 9.94484988 -1.55089145 19.79436047 -7.9375 27.625 C-14.0476641 33.67466743 -22.16060691 37.23579882 -30.8125 37.3125 C-32.3903125 37.1578125 -32.3903125 37.1578125 -34 37 C-33.69480507 34.66017222 -33.35813044 32.33201218 -33 30 C-32.88914062 29.21625 -32.77828125 28.4325 -32.6640625 27.625 C-30.85654356 16.71167809 -25.9295492 9.52071892 -17 3 C-11.47624967 -0.18000766 -6.22151568 -1.59981832 0 0 Z " fill="#EA2A60" transform="translate(297,315)"/>
<path d="M0 0 C11.57599797 1.89846367 23.98772987 4.13432329 31.55859375 14.0390625 C36.52667458 21.16355252 38.08784254 26.41778405 38 35 C27.01165825 34.08657705 17.83997434 32.95128259 9.125 25.5625 C2.4025365 17.4559999 -0.6569785 10.51165606 0 0 Z " fill="#E92B60" transform="translate(201,316)"/>
<path d="M0 0 C0.66 0 1.32 0 2 0 C1.51173834 4.00374563 0.48835241 7.16227827 -1.171875 10.81640625 C-7.52678467 27.57298411 -8.58429496 48.94642233 -3 66 C-2.64421875 67.10601562 -2.2884375 68.21203125 -1.921875 69.3515625 C1.76657455 79.5503477 7.25180068 88.59811984 12.87890625 97.8359375 C21 111.18862535 21 111.18862535 21 114 C20.01 114 19.02 114 18 114 C16.29069943 111.46489169 14.78803039 108.97998979 13.3125 106.3125 C12.42068073 104.74138636 11.52743634 103.17108086 10.6328125 101.6015625 C9.96813965 100.42835449 9.96813965 100.42835449 9.29003906 99.23144531 C7.51192736 96.15575625 5.60237747 93.1799511 3.6875 90.1875 C-3.55666713 78.43941407 -9.42727257 63.93636752 -10 50 C-10.0515625 48.8759375 -10.103125 47.751875 -10.15625 46.59375 C-10.53768696 30.44625219 -7.95337199 15.63539075 -1 1 C-0.67 0.67 -0.34 0.34 0 0 Z " fill="#5FBDD6" transform="translate(221,179)"/>
<path d="M0 0 C-0.33 0.99 -0.66 1.98 -1 3 C-8.32980899 6.41797831 -16.72365842 7.57293167 -24.625 9 C-36.78566503 11.20888129 -47.56360655 14.12329294 -56.875 22.625 C-59.76378916 27.2130769 -60.36532683 31.67632356 -61 37 C-62.32 37 -63.64 37 -65 37 C-65.60823467 29.85324259 -63.81004829 24.37326917 -59.1875 18.82421875 C-49.60307994 9.46883814 -37.12114432 7.41192479 -24.47705078 4.81713867 C-17.9135755 3.46494372 -11.65792244 1.81868406 -5.328125 -0.3984375 C-3 -1 -3 -1 0 0 Z " fill="#DC366B" transform="translate(446,204)"/>
<path d="M0 0 C1.19238281 0.43699219 2.38476562 0.87398437 3.61328125 1.32421875 C10.00544762 3.45660648 16.57943655 4.55740601 23.1875 5.8125 C50.18200752 11.17970079 50.18200752 11.17970079 58 20 C61.89719257 26.028633 63.6636615 30.83245583 63 38 C62.01 38 61.02 38 60 38 C59.91363281 37.443125 59.82726562 36.88625 59.73828125 36.3125 C58.36927115 28.87714239 55.89764204 22.67706031 49.5 18.25 C38.86081267 12.47696904 26.21950026 10.61884997 14.49023438 8.20117188 C3.87488537 5.93888438 3.87488537 5.93888438 -1 3 C-0.67 2.01 -0.34 1.02 0 0 Z " fill="#DF3469" transform="translate(55,203)"/>
<path d="M0 0 C9.98678967 3.89124913 16.80233346 19.69380963 21 29 C24.6818356 37.77405178 27.3677632 46.89471463 29.875 56.0625 C30.09051514 56.83561523 30.30603027 57.60873047 30.52807617 58.40527344 C31.83519339 63.40839594 32.19952749 67.8298905 32 73 C31.34 73 30.68 73 30 73 C29.125 69.71875 29.125 69.71875 28.25 66.4375 C28.06808105 65.76074219 27.88616211 65.08398438 27.69873047 64.38671875 C26.78857564 60.9942521 25.90088209 57.60066133 25.0546875 54.19140625 C20.6027009 36.51440062 13.67623553 18.75697402 1.46875 4.953125 C0 3 0 3 0 0 Z " fill="#60BDD6" transform="translate(255,136)"/>
<path d="M0 0 C0.48452463 6.94485303 -1.30712509 13.2990368 -3 20 C-3.94875 19.175 -4.8975 18.35 -5.875 17.5 C-10.48450321 13.54358862 -15.24034752 9.77324563 -20 6 C-16.77456136 3.21805917 -14.09421254 1.38377773 -10 0.1875 C-9.175 -0.06644531 -8.35 -0.32039063 -7.5 -0.58203125 C-4.71091223 -1.04833186 -2.71720433 -0.71326614 0 0 Z " fill="#EA2B61" transform="translate(297,315)"/>
<path d="M0 0 C4.05214179 1.74522938 7.30603961 4.4228157 10.75 7.125 C11.35199219 7.59292969 11.95398438 8.06085938 12.57421875 8.54296875 C14.05186616 9.69225007 15.52626005 10.84571235 17 12 C16.45276317 15.37462715 15.9451 17.08235 14 20 C10.9499723 19.37990682 8.72873598 18.38363018 6.109375 16.71484375 C5.40039062 16.26689453 4.69140625 15.81894531 3.9609375 15.35742188 C3.23132813 14.88884766 2.50171875 14.42027344 1.75 13.9375 C1.00492187 13.46505859 0.25984375 12.99261719 -0.5078125 12.50585938 C-2.34162943 11.34209094 -4.17123244 10.17168712 -6 9 C-5.21007484 4.75074742 -3.15346563 2.91089135 0 0 Z " fill="#EB2C62" transform="translate(276,321)"/>
<path d="M0 0 C1.32 0 2.64 0 4 0 C5.8671875 1.9140625 5.8671875 1.9140625 7.875 4.625 C11.76690264 9.60663539 15.90846863 14.15154556 20.375 18.625 C20.9819873 19.24068848 21.58897461 19.85637695 22.21435547 20.49072266 C22.79072754 21.0635498 23.36709961 21.63637695 23.9609375 22.2265625 C24.47446777 22.73783691 24.98799805 23.24911133 25.51708984 23.77587891 C27.10241734 25.23417566 27.10241734 25.23417566 30 26 C31.32 21.05 32.64 16.1 34 11 C35.32 10.67 36.64 10.34 38 10 C37.35436589 14.11361164 36.55188012 18.14283203 35.5625 22.1875 C35.31628906 23.21230469 35.07007813 24.23710937 34.81640625 25.29296875 C34 28 34 28 32 31 C28.85696017 31.54298362 27.45786303 31.30416343 24.7890625 29.53125 C19.86972875 24.91382482 15.32998652 20.17026114 11 15 C10.04163162 13.89083104 9.08188392 12.78285305 8.12109375 11.67578125 C7.10123742 10.4924676 6.08170692 9.30887305 5.0625 8.125 C4.56508301 7.55305908 4.06766602 6.98111816 3.55517578 6.3918457 C0 2.22754898 0 2.22754898 0 0 Z " fill="#E13267" transform="translate(340,244)"/>
<path d="M0 0 C0.99 0 1.98 0 3 0 C3.32433388 10.1384368 3.27089449 19.27371752 0 29 C-0.41378906 30.24265625 -0.82757813 31.4853125 -1.25390625 32.765625 C-4.59513876 42.37137577 -8.98021354 51.17279067 -14 60 C-14.57363281 61.04285156 -15.14726562 62.08570313 -15.73828125 63.16015625 C-18.67019992 68.3328465 -18.67019992 68.3328465 -20 70 C-20.99 70 -21.98 70 -23 70 C-21.52729942 64.75554961 -19.0954163 60.63744187 -16.25 56.0625 C-11.54056119 48.29838191 -8.10722592 40.52387652 -5 32 C-4.64035156 31.14664063 -4.28070313 30.29328125 -3.91015625 29.4140625 C-0.45822389 20.2582934 -0.50236011 9.6770421 0 0 Z " fill="#63BDD6" transform="translate(284,218)"/>
<path d="M0 0 C0.99 0 1.98 0 3 0 C2.43207085 3.88676512 0.6485179 5.80175349 -2 8.625 C-2.81339844 9.50027344 -3.62679687 10.37554687 -4.46484375 11.27734375 C-5.30144531 12.17582031 -6.13804687 13.07429688 -7 14 C-8.52240233 15.72778544 -10.0432827 17.45691334 -11.5625 19.1875 C-14.37093779 22.28511376 -17.21127517 25.31410917 -20.25 28.1875 C-20.85328125 28.75855469 -21.4565625 29.32960938 -22.078125 29.91796875 C-24 31 -24 31 -26.62890625 30.8828125 C-29 30 -29 30 -30.6875 26.6875 C-32.42601848 21.26450769 -33.20315371 15.62479733 -34 10 C-33.01 10 -32.02 10 -31 10 C-29.68 15.61 -28.36 21.22 -27 27 C-22.50889329 24.00592886 -18.90221788 21.21926611 -15.1875 17.4375 C-14.67195557 16.92026367 -14.15641113 16.40302734 -13.62524414 15.87011719 C-9.33720816 11.50049908 -5.54086721 6.86393666 -1.83984375 1.984375 C-0.92912109 1.00210938 -0.92912109 1.00210938 0 0 Z " fill="#E32F65" transform="translate(156,244)"/>
<path d="M0 0 C0.99 0.33 1.98 0.66 3 1 C4.10327148 3.33813477 4.10327148 3.33813477 5.12109375 6.44140625 C5.49758057 7.57553955 5.87406738 8.70967285 6.26196289 9.87817383 C6.64989014 11.09400146 7.03781738 12.3098291 7.4375 13.5625 C7.83638428 14.78928467 8.23526855 16.01606934 8.64624023 17.2800293 C16.30837647 41.1375284 16.30837647 41.1375284 16 50 C15.01 50 14.02 50 13 50 C12.731875 48.85789062 12.46375 47.71578125 12.1875 46.5390625 C9.43403288 35.0688846 6.19542874 23.81771905 2.59179688 12.58447266 C2.25599609 11.52534668 1.92019531 10.4662207 1.57421875 9.375 C1.27088623 8.43398438 0.96755371 7.49296875 0.6550293 6.5234375 C0 4 0 4 0 0 Z " fill="#DE3469" transform="translate(163,248)"/>
<path d="M0 0 C0.99 0 1.98 0 3 0 C2.44734915 4.68577374 1.50129838 8.76633786 -0.125 13.1875 C-4.35668281 25.16308205 -7.02189213 37.6680258 -10 50 C-10.99 50 -11.98 50 -13 50 C-13.1539188 45.16358879 -12.72252457 41.12106499 -11.42578125 36.46484375 C-10.91821289 34.63083008 -10.91821289 34.63083008 -10.40039062 32.75976562 C-10.04138672 31.49841797 -9.68238281 30.23707031 -9.3125 28.9375 C-8.97283203 27.70322266 -8.63316406 26.46894531 -8.28320312 25.19726562 C-5.88867436 16.64409839 -3.08992521 8.32173949 0 0 Z " fill="#DF3469" transform="translate(334,248)"/>
<path d="M0 0 C3.4375 1 3.4375 1 5.4375 2.6875 C6.82656225 5.89970645 6.49271374 7.6936636 5.4375 11 C3.31318495 13.27605184 1.99643694 13.90218604 -1.0625 14.4375 C-4.46084723 13.84278924 -5.57491034 12.79734842 -7.5625 10 C-8.17225382 6.34147708 -8.00793026 4.69487121 -6 1.5625 C-3.5625 0 -3.5625 0 0 0 Z " fill="#E7C1D4" transform="translate(90.5625,228)"/>
<path d="M0 0 C2.375 2.125 2.375 2.125 4 5 C4 8.54334961 3.64741834 10.25666783 1.3125 12.9375 C-1.87297124 14.40109489 -3.67881323 13.98928968 -7 13 C-8.875 11.8125 -8.875 11.8125 -10 10 C-10.5 7.0625 -10.5 7.0625 -10 4 C-6.97613607 0.71694774 -4.49365515 -1.03699734 0 0 Z " fill="#E6C1D4" transform="translate(413,228)"/>
<path d="M0 0 C1.875 1.125 1.875 1.125 3 3 C3.54068562 6.63031776 3.46379841 8.32214079 1.375 11.375 C-1.69371124 13.47464453 -3.35392711 13.62060815 -7 13 C-8.9375 11.4375 -8.9375 11.4375 -10 9 C-9.875 5.375 -9.875 5.375 -9 2 C-5.53076119 -0.31282587 -4.07794425 -0.42478586 0 0 Z " fill="#EDC1D4" transform="translate(427,241)"/>
<path d="M0 0 C2 1.125 2 1.125 3 3 C2.875 6.5625 2.875 6.5625 2 10 C-1 12 -1 12 -4.5625 11.75 C-8 11 -8 11 -10 9 C-10.543379 3.02283105 -10.543379 3.02283105 -8.9375 0 C-5.76911701 -1.63529445 -3.36150081 -0.8403752 0 0 Z " fill="#ECC1D4" transform="translate(80,242)"/>
<path d="M0 0 C7.15566756 3.3026158 13.51127226 7.54440695 20 12 C18.35 13.65 16.7 15.3 15 17 C12.34920952 15.21558282 9.70526749 13.42127357 7.0625 11.625 C6.30775391 11.11710937 5.55300781 10.60921875 4.77539062 10.0859375 C4.05673828 9.59609375 3.33808594 9.10625 2.59765625 8.6015625 C1.93258057 8.15119629 1.26750488 7.70083008 0.58227539 7.23681641 C-1 6 -1 6 -2 4 C-1.0625 1.875 -1.0625 1.875 0 0 Z " fill="#ED2C63" transform="translate(269,329)"/>
<path d="M0 0 C0.99 0 1.98 0 3 0 C1.52323261 4.18935591 -0.65359554 7.65948305 -3.125 11.3125 C-8.12620137 18.87608941 -12.08639714 26.83492928 -16 35 C-16.66327397 36.33502429 -17.32793527 37.66937938 -18 39 C-18.99 39 -19.98 39 -21 39 C-20.41363092 35.43134518 -19.47055363 32.58378987 -17.8125 29.375 C-17.36519531 28.5089917 -16.91789063 27.6429834 -16.45703125 26.75073242 C-15.97621094 25.84299072 -15.49539062 24.93524902 -15 24 C-14.26330078 22.60454956 -14.26330078 22.60454956 -13.51171875 21.1809082 C-5.40259432 6.06666321 -5.40259432 6.06666321 0 0 Z " fill="#5FBDD6" transform="translate(246,132)"/>
<path d="M0 0 C3 0.1875 3 0.1875 6 1 C8.13586678 4.20380017 8.23132175 5.01939967 8.125 8.6875 C8.10695312 9.49574219 8.08890625 10.30398438 8.0703125 11.13671875 C8.03550781 12.05904297 8.03550781 12.05904297 8 13 C8.66 11.68 9.32 10.36 10 9 C10.99 9 11.98 9 13 9 C12.39873418 14.41139241 12.39873418 14.41139241 10.6875 16.9375 C9 18 9 18 6.9375 17.8125 C5 17 5 17 3 15 C2.8046875 12.3984375 2.8046875 12.3984375 2.875 9.375 C2.89304688 8.37210937 2.91109375 7.36921875 2.9296875 6.3359375 C2.95289063 5.56507813 2.97609375 4.79421875 3 4 C2.34 3.67 1.68 3.34 1 3 C1.33 4.98 1.66 6.96 2 9 C-0.475 8.01 -0.475 8.01 -3 7 C-2.25 2.25 -2.25 2.25 0 0 Z " fill="#EBEED9" transform="translate(144,270)"/>
<path d="M0 0 C2.77447071 0.97106475 3.87265214 1.43397821 5.5 3.875 C5.644375 5.050625 5.78875 6.22625 5.9375 7.4375 C6.123125 8.571875 6.30875 9.70625 6.5 10.875 C8.43597032 12.38794288 8.43597032 12.38794288 10.5 12.875 C10.5 11.555 10.5 10.235 10.5 8.875 C11.49 9.205 12.48 9.535 13.5 9.875 C13.17 11.855 12.84 13.835 12.5 15.875 C10.3125 16.625 10.3125 16.625 7.5 16.875 C4.5837654 15.31515358 2.88830682 14.0747983 1.84765625 10.859375 C1.61369141 9.78429687 1.61369141 9.78429687 1.375 8.6875 C1.08625 7.429375 0.7975 6.17125 0.5 4.875 C-0.49 4.545 -1.48 4.215 -2.5 3.875 C-2.83 5.525 -3.16 7.175 -3.5 8.875 C-4.49 8.545 -5.48 8.215 -6.5 7.875 C-6.13803085 5.19642828 -5.76012724 3.26519086 -4.25 1 C-2.5 -0.125 -2.5 -0.125 0 0 Z " fill="#EAEDD9" transform="translate(121.5,294.125)"/>
<path d="M0 0 C2.5625 0.375 2.5625 0.375 4.375 1.8125 C6.13884638 5.61869483 5.80066637 9.24678296 5.5625 13.375 C8.07333114 12.11958443 8.43375446 10.87436512 9.5625 8.375 C10.5525 8.705 11.5425 9.035 12.5625 9.375 C12.20053085 12.05357172 11.82262724 13.98480914 10.3125 16.25 C8.5625 17.375 8.5625 17.375 6 17.25 C3.5625 16.375 3.5625 16.375 1.5625 13.375 C1.3671875 10.89453125 1.3671875 10.89453125 1.4375 8.1875 C1.45554688 7.28644531 1.47359375 6.38539063 1.4921875 5.45703125 C1.51539063 4.76996094 1.53859375 4.08289063 1.5625 3.375 C0.5725 3.87 0.5725 3.87 -0.4375 4.375 C-1.08963292 6.39963255 -1.08963292 6.39963255 -1.4375 8.375 C-2.4275 8.375 -3.4175 8.375 -4.4375 8.375 C-4.5625 5.5 -4.5625 5.5 -4.4375 2.375 C-2.4375 0.375 -2.4375 0.375 0 0 Z " fill="#EBEED9" transform="translate(132.4375,281.625)"/>
<path d="M0 0 C0.99 0 1.98 0 3 0 C3.50505263 2.89503383 4.0042022 5.79087953 4.5 8.6875 C4.64308594 9.50412109 4.78617188 10.32074219 4.93359375 11.16210938 C5.61165962 15.14978248 6.19858392 18.93730404 6 23 C1.49527791 23 0.95198702 22.5514995 -2.25 19.6875 C-2.95640625 19.07261719 -3.6628125 18.45773437 -4.390625 17.82421875 C-6 16 -6 16 -6 13 C-3.03824877 13.61277612 -1.61941217 14.25372522 1 16 C0.67 10.72 0.34 5.44 0 0 Z " fill="#EAC1D4" transform="translate(158,288)"/>
<path d="M0 0 C1.32 0 2.64 0 4 0 C3.67 5.61 3.34 11.22 3 17 C4.32 15.68 5.64 14.36 7 13 C7.99 13 8.98 13 10 13 C8.82612037 17.98898842 5.81687611 19.98658122 1.875 22.86328125 C0 24 0 24 -2 24 C-2.02712066 22.56260487 -2.04645067 21.12506137 -2.0625 19.6875 C-2.07410156 18.88699219 -2.08570313 18.08648437 -2.09765625 17.26171875 C-2 15 -2 15 -1 12 C-0.77674186 9.94106379 -0.59294241 7.87766347 -0.4375 5.8125 C-0.35371094 4.72582031 -0.26992188 3.63914062 -0.18359375 2.51953125 C-0.12300781 1.68808594 -0.06242187 0.85664063 0 0 Z " fill="#EAC1D4" transform="translate(338,288)"/>
<path d="M0 0 C3.58375385 0.62469104 5.8348536 2.11470168 8.75 4.25 C12.59935406 7.0313582 16.4928051 9.57784959 20.6015625 11.95703125 C21.06304687 12.30121094 21.52453125 12.64539063 22 13 C22 13.66 22 14.32 22 15 C18.26512223 14.5020163 16.18762365 14.12508244 13 12 C13.2165625 12.53109375 13.433125 13.0621875 13.65625 13.609375 C13.9346875 14.31578125 14.213125 15.0221875 14.5 15.75 C14.7784375 16.44609375 15.056875 17.1421875 15.34375 17.859375 C16 20 16 20 16 24 C15.01 24 14.02 24 13 24 C12.81566406 23.0821875 12.63132813 22.164375 12.44140625 21.21875 C10.57354424 13.3156183 8.56636475 8.45246417 1.828125 3.453125 C1.22484375 2.97359375 0.6215625 2.4940625 0 2 C0 1.34 0 0.68 0 0 Z " fill="#FDEED9" transform="translate(226,255)"/>
<path d="M0 0 C2.4375 0.75 2.4375 0.75 4.4375 2.75 C4.5625 5.875 4.5625 5.875 4.4375 8.75 C3.4475 8.42 2.4575 8.09 1.4375 7.75 C1.1075 6.76 0.7775 5.77 0.4375 4.75 C-0.5525 4.75 -1.5425 4.75 -2.5625 4.75 C-2.66046875 5.36488281 -2.7584375 5.97976563 -2.859375 6.61328125 C-4.07370163 13.17692605 -4.07370163 13.17692605 -6.375 15.875 C-9.17745419 16.99598167 -10.7245054 16.67043068 -13.5625 15.75 C-14.5625 14.75 -14.5625 14.75 -14.625 12.1875 C-14.604375 11.383125 -14.58375 10.57875 -14.5625 9.75 C-13.5725 9.75 -12.5825 9.75 -11.5625 9.75 C-11.5625 10.74 -11.5625 11.73 -11.5625 12.75 C-9.54126824 12.07123272 -9.54126824 12.07123272 -7.5625 10.75 C-6.75932576 8.63892277 -6.75932576 8.63892277 -6.5 6.25 C-6.15234375 3.84375 -6.15234375 3.84375 -5.5625 1.75 C-2.5625 -0.25 -2.5625 -0.25 0 0 Z " fill="#F1F0D9" transform="translate(379.5625,294.25)"/>
<path d="M0 0 C2 2 2 2 2.125 4.625 C2.08375 5.40875 2.0425 6.1925 2 7 C0.02 7.99 0.02 7.99 -2 9 C-1.67 7.02 -1.34 5.04 -1 3 C-1.99 3.66 -2.98 4.32 -4 5 C-4.28888898 7.60196614 -4.28888898 7.60196614 -4.0625 10.5 C-3.91015625 13.46875 -3.91015625 13.46875 -4 16 C-4.66 16.66 -5.32 17.32 -6 18 C-8.78583421 17.82026876 -9.80277618 17.20426753 -11.75 15.1875 C-13 13 -13 13 -13 9 C-12.01 9 -11.02 9 -10 9 C-9.67 10.65 -9.34 12.3 -9 14 C-8.34 14 -7.68 14 -7 14 C-7.10699219 13.24074219 -7.21398437 12.48148437 -7.32421875 11.69921875 C-7.44410156 10.70535156 -7.56398438 9.71148437 -7.6875 8.6875 C-7.81511719 7.70136719 -7.94273437 6.71523438 -8.07421875 5.69921875 C-8 3 -8 3 -6.6796875 1.1640625 C-4.34333883 -0.45508146 -2.77882998 -0.35626025 0 0 Z " fill="#F3F0D9" transform="translate(356,270)"/>
<path d="M0 0 C0.99 0 1.98 0 3 0 C2.39644592 3.85025879 1.23227397 6.86101159 -0.5625 10.3125 C-1.01753906 11.19550781 -1.47257812 12.07851563 -1.94140625 12.98828125 C-2.29074219 13.65214844 -2.64007813 14.31601562 -3 15 C-2.07767578 14.566875 -2.07767578 14.566875 -1.13671875 14.125 C-0.32847656 13.75375 0.47976563 13.3825 1.3125 13 C2.11300781 12.62875 2.91351563 12.2575 3.73828125 11.875 C6 11 6 11 9 11 C8.86328125 12.859375 8.86328125 12.859375 8 15 C5.41796875 16.265625 5.41796875 16.265625 2.1875 17.25 C1.12917969 17.58515625 0.07085937 17.9203125 -1.01953125 18.265625 C-4 19 -4 19 -8 19 C-7.46199791 14.01400883 -5.88255471 10.48164295 -3.4375 6.125 C-2.79683594 4.97257812 -2.15617187 3.82015625 -1.49609375 2.6328125 C-0.75552734 1.32957031 -0.75552734 1.32957031 0 0 Z " fill="#EDC1D4" transform="translate(352,305)"/>
<path d="M0 0 C4.20734691 1.49086423 5.34040527 3.90168857 7.25 7.8125 C7.77078125 8.85019531 8.2915625 9.88789063 8.828125 10.95703125 C9.97018676 13.92258495 10.2549645 15.86509561 10 19 C3.79011871 18.55643705 -0.60540561 17.08467498 -6 14 C-6 13.01 -6 12.02 -6 11 C-1.61110675 11.66498383 1.9811485 13.18757677 6 15 C5.566875 14.16855469 5.13375 13.33710938 4.6875 12.48046875 C3.8521875 10.85044922 3.8521875 10.85044922 3 9.1875 C2.443125 8.10855469 1.88625 7.02960938 1.3125 5.91796875 C0 3 0 3 0 0 Z " fill="#EDC1D4" transform="translate(145,305)"/>
<path d="M0 0 C1.3921875 0.3403125 1.3921875 0.3403125 2.8125 0.6875 C3.1425 2.6675 3.4725 4.6475 3.8125 6.6875 C2.4925 7.0175 1.1725 7.3475 -0.1875 7.6875 C-0.1875 6.0375 -0.1875 4.3875 -0.1875 2.6875 C-1.1775 3.1825 -1.1775 3.1825 -2.1875 3.6875 C-2.5800628 5.94451232 -2.5800628 5.94451232 -2.6875 8.5625 C-2.90355729 12.26788253 -3.06011471 13.49642206 -5.1875 16.6875 C-8.26281556 16.35503345 -9.80582506 16.05645244 -12.0625 13.875 C-13.1875 11.6875 -13.1875 11.6875 -12.875 9.4375 C-12.648125 8.86 -12.42125 8.2825 -12.1875 7.6875 C-11.1975 8.0175 -10.2075 8.3475 -9.1875 8.6875 C-9.1875 10.0075 -9.1875 11.3275 -9.1875 12.6875 C-8.1975 12.6875 -7.2075 12.6875 -6.1875 12.6875 C-6.22230469 12.00042969 -6.25710938 11.31335938 -6.29296875 10.60546875 C-6.32003906 9.70441406 -6.34710938 8.80335938 -6.375 7.875 C-6.40980469 6.98167969 -6.44460938 6.08835937 -6.48046875 5.16796875 C-6.1875 2.6875 -6.1875 2.6875 -4.875 0.84375 C-3.1875 -0.3125 -3.1875 -0.3125 0 0 Z " fill="#F1F0D9" transform="translate(368.1875,282.3125)"/>
<path d="M0 0 C0.99 0.33 1.98 0.66 3 1 C1.37741234 6.09813037 -1.69338835 9.97205531 -4.875 14.1875 C-5.66970703 15.27321289 -5.66970703 15.27321289 -6.48046875 16.38085938 C-6.99996094 17.07373047 -7.51945312 17.76660156 -8.0546875 18.48046875 C-8.52374512 19.10848389 -8.99280273 19.73649902 -9.47607422 20.38354492 C-11.16753654 22.17770897 -12.74833216 23.03279393 -15 24 C-15.33 23.34 -15.66 22.68 -16 22 C-15.34773438 21.16597656 -14.69546875 20.33195312 -14.0234375 19.47265625 C-9.09327162 13.1358931 -4.31143336 6.78262078 0 0 Z " fill="#EDC1D4" transform="translate(402,265)"/>
<path d="M0 0 C0.99 0 1.98 0 3 0 C4.796875 2.30859375 4.796875 2.30859375 6.75 5.4375 C9.83414678 10.26932995 13.07967688 14.76068412 16.75 19.16015625 C18 21 18 21 18 24 C15 24 15 24 13.60546875 22.6105957 C13.13753906 21.97210693 12.66960937 21.33361816 12.1875 20.67578125 C11.66929688 19.97646484 11.15109375 19.27714844 10.6171875 18.55664062 C10.08351563 17.81607422 9.54984375 17.07550781 9 16.3125 C8.46632813 15.59126953 7.93265625 14.87003906 7.3828125 14.12695312 C0 4.07200326 0 4.07200326 0 0 Z " fill="#EDC1D4" transform="translate(95,265)"/>
<path d="M0 0 C0.16702456 4.34263862 0.12999997 7.20960634 -2 11 C-3.67243402 9.71580959 -5.33781447 8.42242815 -7 7.125 C-8.3921875 6.04605469 -8.3921875 6.04605469 -9.8125 4.9453125 C-10.534375 4.30335938 -11.25625 3.66140625 -12 3 C-12 2.34 -12 1.68 -12 1 C-7.58774263 -0.47075246 -4.51718381 -1.36884358 0 0 Z " fill="#EC4676" transform="translate(297,315)"/>
<path d="M0 0 C1.32 0 2.64 0 4 0 C4.37511719 0.72445313 4.75023438 1.44890625 5.13671875 2.1953125 C8.50113383 8.65500618 8.50113383 8.65500618 12.875 14.4375 C15 17 15 17 15 21 C11.05952928 19.48375623 9.34697331 17.1483323 6.9375 13.75 C6.26589844 12.81671875 5.59429687 11.8834375 4.90234375 10.921875 C0 3.39219713 0 3.39219713 0 0 Z " fill="#EAC1D4" transform="translate(90,271)"/>
<path d="M0 0 C1.65 0.33 3.3 0.66 5 1 C5 2.65 5 4.3 5 6 C6.32 6.33 7.64 6.66 9 7 C9.33 6.01 9.66 5.02 10 4 C10.66 4 11.32 4 12 4 C11.125 7.875 11.125 7.875 10 9 C6.5 9.125 6.5 9.125 3 9 C2.67 8.67 2.34 8.34 2 8 C-0.31469584 7.5103528 -2.63794836 7.10099 -4.96875 6.6953125 C-5.6390625 6.46585938 -6.309375 6.23640625 -7 6 C-7.33 5.01 -7.66 4.02 -8 3 C-5.69 3.33 -3.38 3.66 -1 4 C-0.67 2.68 -0.34 1.36 0 0 Z " fill="#EF3368" transform="translate(243,162)"/>
<path d="M0 0 C3.51224516 1.17074839 3.83287989 1.86990516 5.69921875 4.9296875 C6.42915039 6.12271484 6.42915039 6.12271484 7.17382812 7.33984375 C7.67333984 8.17644531 8.17285156 9.01304687 8.6875 9.875 C9.19861328 10.70386719 9.70972656 11.53273438 10.23632812 12.38671875 C14 18.60758094 14 18.60758094 14 22 C11.39254322 21.63613634 10.26578335 21.30862618 8.52026367 19.28173828 C8.07400635 18.55196777 7.62774902 17.82219727 7.16796875 17.0703125 C6.68005859 16.27496094 6.19214844 15.47960937 5.68945312 14.66015625 C5.19380859 13.82355469 4.69816406 12.98695313 4.1875 12.125 C3.4150293 10.88169922 3.4150293 10.88169922 2.62695312 9.61328125 C-0.15965824 4.9950418 -0.15965824 4.9950418 -1 3 C-0.67 2.01 -0.34 1.02 0 0 Z " fill="#EBC1D4" transform="translate(104,259)"/>
<path d="M0 0 C0.66 0 1.32 0 2 0 C3.14077657 3.42232972 3.09815117 6.08673217 3.0625 9.6875 C3.05347656 10.86699219 3.04445312 12.04648438 3.03515625 13.26171875 C3.02355469 14.16535156 3.01195312 15.06898438 3 16 C2.01 16 1.02 16 0 16 C-0.33 13.36 -0.66 10.72 -1 8 C-1.66 9.98 -2.32 11.96 -3 14 C-3.99 13.67 -4.98 13.34 -6 13 C-2.98165138 2.98165138 -2.98165138 2.98165138 0 0 Z " fill="#FDEDD9" transform="translate(239,208)"/>
<path d="M0 0 C0.66 0 1.32 0 2 0 C1.54536925 5.76471789 -0.84117801 9.6222987 -3.875 14.375 C-4.32230469 15.11105469 -4.76960938 15.84710938 -5.23046875 16.60546875 C-5.66746094 17.30027344 -6.10445313 17.99507813 -6.5546875 18.7109375 C-6.95155762 19.34306152 -7.34842773 19.97518555 -7.75732422 20.62646484 C-8.37244873 21.30636475 -8.37244873 21.30636475 -9 22 C-9.99 22 -10.98 22 -12 22 C-11.43917598 18.39380316 -10.54264046 15.85420839 -8.56640625 12.79296875 C-8.08236328 12.04208984 -7.59832031 11.29121094 -7.09960938 10.51757812 C-6.59236328 9.74865234 -6.08511719 8.97972656 -5.5625 8.1875 C-5.05912109 7.39923828 -4.55574219 6.61097656 -4.03710938 5.79882812 C-1.22713438 1.48870711 -1.22713438 1.48870711 0 0 Z " fill="#ECC1D4" transform="translate(394,259)"/>
<path d="M0 0 C1.43791516 0.14168137 2.8753237 0.28851043 4.3125 0.4375 C5.11300781 0.51871094 5.91351563 0.59992188 6.73828125 0.68359375 C9 1 9 1 12 2 C12 2.99 12 3.98 12 5 C10.02 5 8.04 5 6 5 C6.66 5.928125 7.32 6.85625 8 7.8125 C10 11 10 11 10 14 C8.203125 13.8046875 8.203125 13.8046875 6 13 C4.296875 10.8203125 4.296875 10.8203125 2.75 8.125 C1.96882812 6.79855469 1.96882812 6.79855469 1.171875 5.4453125 C0 3 0 3 0 0 Z " fill="#F1F0D9" transform="translate(161,324)"/>
<path d="M0 0 C0.99 0 1.98 0 3 0 C1.77462556 8.1837507 -3.59589921 14.96012264 -9 21 C-9.99 20.67 -10.98 20.34 -12 20 C-10.50334145 16.76840889 -8.64942968 14.00630936 -6.5625 11.125 C-3.99828876 7.51373583 -1.80650445 4.03806877 0 0 Z " fill="#EDC1D4" transform="translate(406,271)"/>
<path d="M0 0 C1.32 0.33 2.64 0.66 4 1 C4.33 4.3 4.66 7.6 5 11 C4.01 10.67 3.02 10.34 2 10 C1.67 9.34 1.34 8.68 1 8 C0.89042969 8.63808594 0.78085937 9.27617187 0.66796875 9.93359375 C0.50941406 10.75988281 0.35085938 11.58617187 0.1875 12.4375 C0.03667969 13.26121094 -0.11414063 14.08492187 -0.26953125 14.93359375 C-0.51058594 15.61550781 -0.75164062 16.29742187 -1 17 C-1.99 17.33 -2.98 17.66 -4 18 C-3.61020794 11.44074057 -2.57886807 6.05473373 0 0 Z " fill="#FDEED9" transform="translate(270,216)"/>
<path d="M0 0 C2.375 0.8125 2.375 0.8125 3.375 2.8125 C4.365 2.4825 5.355 2.1525 6.375 1.8125 C5.07806052 5.70331843 3.66800888 8.29431674 0.375 10.8125 C-1.875 10.5625 -1.875 10.5625 -3.625 9.8125 C-3.46 9.19375 -3.295 8.575 -3.125 7.9375 C-2.54865356 5.85186614 -2.54865356 5.85186614 -2.625 3.8125 C-3.615 5.2975 -3.615 5.2975 -4.625 6.8125 C-5.615 6.8125 -6.605 6.8125 -7.625 6.8125 C-4.42929594 -0.31637828 -4.42929594 -0.31637828 0 0 Z " fill="#F9B5B4" transform="translate(224.625,332.1875)"/>
<path d="M0 0 C-1.14171392 3.32134957 -2.65898368 6.29652203 -4.4375 9.3125 C-4.84871094 10.00988281 -5.25992187 10.70726562 -5.68359375 11.42578125 C-6.11800781 11.94527344 -6.55242187 12.46476562 -7 13 C-7.99 13 -8.98 13 -10 13 C-9.46930939 9.17902761 -8.50298434 6.93828597 -6 4 C-7.98 4 -9.96 4 -12 4 C-12 3.01 -12 2.02 -12 1 C-3.96428571 -1.27678571 -3.96428571 -1.27678571 0 0 Z " fill="#F3F0D9" transform="translate(339,325)"/>
<path d="M0 0 C1.890625 0.265625 1.890625 0.265625 4 1 C6.43315632 4.88578696 7.42634867 9.45228087 7 14 C6.01 14 5.02 14 4 14 C3.34 11.69 2.68 9.38 2 7 C1.38125 7.99 0.7625 8.98 0.125 10 C-0.57625 10.99 -1.2775 11.98 -2 13 C-2.66 13 -3.32 13 -4 13 C-3.40895235 8.15340923 -2.02055843 4.39251833 0 0 Z " fill="#FDEED9" transform="translate(224,205)"/>
<path d="M0 0 C1.32 0.33 2.64 0.66 4 1 C4 2.98 4 4.96 4 7 C5.65 6.67 7.3 6.34 9 6 C8.67 7.32 8.34 8.64 8 10 C5.625 10.625 5.625 10.625 3 11 C2.34 10.34 1.68 9.68 1 9 C-0.98356483 8.28591666 -2.98315437 7.61382258 -5 7 C-5 6.01 -5 5.02 -5 4 C-3.68 4.33 -2.36 4.66 -1 5 C-0.67 3.35 -0.34 1.7 0 0 Z " fill="#EF3468" transform="translate(264,164)"/>
<path d="M0 0 C0.99 0 1.98 0 3 0 C2.86722656 0.78503906 2.73445313 1.57007813 2.59765625 2.37890625 C1.66757357 7.91187987 0.75808113 13.44073841 0 19 C-1.32 19 -2.64 19 -4 19 C-3.59060025 12.23784552 -2.43046191 6.32837252 0 0 Z " fill="#DA386C" transform="translate(319,313)"/>
<path d="M0 0 C0 1.65 0 3.3 0 5 C0.45375 4.505 0.9075 4.01 1.375 3.5 C3 2 3 2 5 2 C3.66087415 6.38259368 1.87774964 8.54093925 -2 11 C-2.99 10.67 -3.98 10.34 -5 10 C-4.67 8.35 -4.34 6.7 -4 5 C-5.84046388 5 -7.39629594 6.17228177 -9 7 C-6.79922603 2.09058114 -5.62803596 0 0 0 Z " fill="#FCE0CE" transform="translate(218,325)"/>
<path d="M0 0 C0.99 0 1.98 0 3 0 C5.44166784 6.83085645 6.41640288 12.7515055 6 20 C5.01 19.67 4.02 19.34 3 19 C2.49521515 16.58424393 1.99602358 14.16755639 1.5 11.75 C1.35691406 11.06808594 1.21382812 10.38617188 1.06640625 9.68359375 C0.38748951 6.35366879 0 3.41667449 0 0 Z " fill="#E03368" transform="translate(178,313)"/>
<path d="M0 0 C0.99 0 1.98 0 3 0 C3 4.62 3 9.24 3 14 C2.01 14 1.02 14 0 14 C-0.33 12.02 -0.66 10.04 -1 8 C-1.33 8.66 -1.66 9.32 -2 10 C-2.99 10 -3.98 10 -5 10 C-4.38390949 5.99541169 -2.44939347 3.16980331 0 0 Z " fill="#FDEDD9" transform="translate(249,216)"/>
<path d="M0 0 C8.08299944 0.36740907 15.36454007 1.25950761 23 4 C23 4.99 23 5.98 23 7 C19.81172586 6.5334233 16.83428055 5.9490094 13.75 5 C9.18068812 3.78151683 4.70347847 3.3596221 0 3 C0 2.01 0 1.02 0 0 Z " fill="#FDEFD9" transform="translate(240,154)"/>
<path d="M0 0 C4.11965167 0.56890428 6.58940104 2.79133577 9.75 5.375 C11.22726562 6.56222656 11.22726562 6.56222656 12.734375 7.7734375 C13.48203125 8.50820313 14.2296875 9.24296875 15 10 C15 10.99 15 11.98 15 13 C10.88034833 12.43109572 8.41059896 10.20866423 5.25 7.625 C4.26515625 6.83351563 3.2803125 6.04203125 2.265625 5.2265625 C1.51796875 4.49179687 0.7703125 3.75703125 0 3 C0 2.01 0 1.02 0 0 Z " fill="#ECEED9" transform="translate(404,253)"/>
<path d="M0 0 C7.03128878 0.43384548 13.329015 1.74321997 20 4 C20 4.99 20 5.98 20 7 C13.4 5.68 6.8 4.36 0 3 C0 2.01 0 1.02 0 0 Z " fill="#FDEED9" transform="translate(242,149)"/>
<path d="M0 0 C-0.48445638 4.22445961 -2.78745569 6.01148244 -5.875 8.75 C-7.20144531 9.94882812 -7.20144531 9.94882812 -8.5546875 11.171875 C-11 13 -11 13 -14 13 C-13.70184558 9.82938228 -12.9053972 8.90828236 -10.56640625 6.640625 C-9.57511719 5.85171875 -8.58382812 5.0628125 -7.5625 4.25 C-6.57378906 3.45078125 -5.58507812 2.6515625 -4.56640625 1.828125 C-2 0 -2 0 0 0 Z " fill="#F0EFD9" transform="translate(95,253)"/>
<path d="M0 0 C3.16168368 1.43130275 5.62274483 3.17514138 8.25 5.4375 C8.95640625 6.03433594 9.6628125 6.63117188 10.390625 7.24609375 C12 9 12 9 12 12 C8.09170915 11.4352699 6.10079777 9.57868029 3.25 6.9375 C2.45078125 6.20402344 1.6515625 5.47054687 0.828125 4.71484375 C0.22484375 4.14894531 -0.3784375 3.58304688 -1 3 C-0.67 2.01 -0.34 1.02 0 0 Z " fill="#EEEFD9" transform="translate(391,241)"/>
<path d="M0 0 C-0.3176372 3.22652525 -0.68203931 4.67830592 -2.99609375 7.01953125 C-4.20458984 7.90705078 -4.20458984 7.90705078 -5.4375 8.8125 C-6.24058594 9.41707031 -7.04367188 10.02164063 -7.87109375 10.64453125 C-10 12 -10 12 -12 12 C-11.48256463 7.96945077 -9.56870538 6.34736145 -6.5625 3.75 C-5.75941406 3.04359375 -4.95632812 2.3371875 -4.12890625 1.609375 C-2 0 -2 0 0 0 Z " fill="#F1F0D9" transform="translate(109,241)"/>
<path d="M0 0 C4.70454138 0.96823593 8.23142825 3.4063678 12.25 5.9375 C12.99507813 6.39318359 13.74015625 6.84886719 14.5078125 7.31835938 C15.21164062 7.75857422 15.91546875 8.19878906 16.640625 8.65234375 C17.28547852 9.05445068 17.93033203 9.45655762 18.59472656 9.87084961 C19.0584668 10.24346924 19.52220703 10.61608887 20 11 C20 11.66 20 12.32 20 13 C15.29545862 12.03176407 11.76857175 9.5936322 7.75 7.0625 C7.00492187 6.60681641 6.25984375 6.15113281 5.4921875 5.68164062 C4.78835938 5.24142578 4.08453125 4.80121094 3.359375 4.34765625 C2.39209473 3.74449585 2.39209473 3.74449585 1.40527344 3.12915039 C0.9415332 2.75653076 0.47779297 2.38391113 0 2 C0 1.34 0 0.68 0 0 Z " fill="#F8B0C6" transform="translate(270,328)"/>
<path d="M0 0 C0.99 0 1.98 0 3 0 C2.22225866 5.05531868 1.14051606 10.01716284 0 15 C-0.99 14.67 -1.98 14.34 -3 14 C-2.58846263 9.02906176 -2.20399168 4.55491614 0 0 Z " fill="#D53D70" transform="translate(375,254)"/>
<path d="M0 0 C2.72042564 1.72325895 5.4383846 3.45016178 8.15234375 5.18359375 C9.78540773 6.22526007 11.4215672 7.26218451 13.06640625 8.28515625 C14.41209702 9.13796751 15.71305675 10.06087925 17 11 C17 11.66 17 12.32 17 13 C12.84999494 11.51400561 9.36963518 9.47679376 5.6875 7.0625 C4.61886719 6.37285156 3.55023438 5.68320312 2.44921875 4.97265625 C1.64097656 4.32167969 0.83273437 3.67070312 0 3 C0 2.01 0 1.02 0 0 Z " fill="#F6ADC4" transform="translate(267,334)"/>
<path d="M0 0 C3.99620504 1.74092101 7.31833146 4.36025497 10.75 7 C11.35199219 7.45117188 11.95398438 7.90234375 12.57421875 8.3671875 C14.08906356 9.52822502 15.54969821 10.75927939 17 12 C17 12.66 17 13.32 17 14 C12.87235084 12.18633597 9.37940795 9.50853382 5.75 6.875 C4.77546875 6.17310547 4.77546875 6.17310547 3.78125 5.45703125 C2.18564517 4.30725718 0.59256975 3.15397434 -1 2 C-0.67 1.34 -0.34 0.68 0 0 Z " fill="#F8B2C8" transform="translate(276,321)"/>
<path d="M0 0 C1.9375 0.75 1.9375 0.75 4 2 C4.875 4 4.875 4 5 6 C4.34 6.66 3.68 7.32 3 8 C0.375 7.625 0.375 7.625 -2 7 C-2.125 4.625 -2.125 4.625 -2 2 C-1.34 1.34 -0.68 0.68 0 0 Z " fill="#65BDD6" transform="translate(229,238)"/>
<path d="M0 0 C1.2065625 0.0309375 1.2065625 0.0309375 2.4375 0.0625 C3.0625 2.4375 3.0625 2.4375 3.4375 5.0625 C2.7775 5.7225 2.1175 6.3825 1.4375 7.0625 C-0.6875 6.6875 -0.6875 6.6875 -2.5625 6.0625 C-2.94468767 4.40635343 -3.27645102 2.73792976 -3.5625 1.0625 C-2.5625 0.0625 -2.5625 0.0625 0 0 Z " fill="#5FBDD6" transform="translate(237.5625,248.9375)"/>
<path d="M0 0 C0.66 0 1.32 0 2 0 C1.67 3.96 1.34 7.92 1 12 C0.01 12 -0.98 12 -2 12 C-2.28571429 3.42857143 -2.28571429 3.42857143 0 0 Z " fill="#FDEED9" transform="translate(280,213)"/>
<path d="M0 0 C4.97093824 0.41153737 9.44508386 0.79600832 14 3 C14 3.66 14 4.32 14 5 C9.03083364 4.48594831 4.70973649 3.76615118 0 2 C0 1.34 0 0.68 0 0 Z " fill="#EE3166" transform="translate(225,195)"/>
<path d="M0 0 C0.66 0 1.32 0 2 0 C1.68950274 1.43793392 1.3765224 2.8753318 1.0625 4.3125 C0.88847656 5.11300781 0.71445313 5.91351563 0.53515625 6.73828125 C0 9 0 9 -1 12 C-1.99 12 -2.98 12 -4 12 C-3.71640113 10.5608866 -3.42278601 9.12374482 -3.125 7.6875 C-2.96257812 6.88699219 -2.80015625 6.08648437 -2.6328125 5.26171875 C-2 3 -2 3 0 0 Z " fill="#64BDD6" transform="translate(235,170)"/>
<path d="M0 0 C1.2065625 0.0309375 1.2065625 0.0309375 2.4375 0.0625 C3.0625 1.9375 3.0625 1.9375 3.4375 4.0625 C2.7775 4.7225 2.1175 5.3825 1.4375 6.0625 C-0.6875 5.6875 -0.6875 5.6875 -2.5625 5.0625 C-3.125 3.125 -3.125 3.125 -3.5625 1.0625 C-2.5625 0.0625 -2.5625 0.0625 0 0 Z " fill="#61BDD6" transform="translate(423.5625,244.9375)"/>
<path d="M0 0 C1.65 0 3.3 0 5 0 C5.38218767 1.65614657 5.71395102 3.32457024 6 5 C5 6 5 6 2.4375 6.0625 C1.2309375 6.0315625 1.2309375 6.0315625 0 6 C0 4.02 0 2.04 0 0 Z " fill="#57BDD6" transform="translate(87,232)"/>
<path d="M0 0 C0 1.65 0 3.3 0 5 C-0.99 5 -1.98 5 -3 5 C-3.33 4.67 -3.66 4.34 -4 4 C-4.99 5.485 -4.99 5.485 -6 7 C-6.99 7 -7.98 7 -9 7 C-6.79922603 2.09058114 -5.62803596 0 0 0 Z " fill="#FCE1CE" transform="translate(226,332)"/>
<path d="M0 0 C1.65 0.33 3.3 0.66 5 1 C4.67 2.65 4.34 4.3 4 6 C2.35 5.67 0.7 5.34 -1 5 C-0.67 3.35 -0.34 1.7 0 0 Z " fill="#52BDD7" transform="translate(408,232)"/>
<path d="M0 0 C0.66 0 1.32 0 2 0 C1.14285714 8.57142857 1.14285714 8.57142857 -1 12 C-1.66 11.67 -2.32 11.34 -3 11 C-2.69217504 9.35328588 -2.37860766 7.70764424 -2.0625 6.0625 C-1.88847656 5.14597656 -1.71445313 4.22945312 -1.53515625 3.28515625 C-1 1 -1 1 0 0 Z " fill="#65BDD6" transform="translate(240,171)"/>
<path d="M0 0 C4.59306496 1.4859916 7.43569245 3.85014682 11 7 C10.67 7.99 10.34 8.98 10 10 C8.32756598 8.71580959 6.66218553 7.42242815 5 6.125 C3.6078125 5.04605469 3.6078125 5.04605469 2.1875 3.9453125 C1.465625 3.30335938 0.74375 2.66140625 0 2 C0 1.34 0 0.68 0 0 Z " fill="#F8AEC5" transform="translate(285,316)"/>
<path d="M0 0 C1.65 0 3.3 0 5 0 C5 1.65 5 3.3 5 5 C3.125 5.625 3.125 5.625 1 6 C0.34 5.34 -0.32 4.68 -1 4 C-0.625 1.875 -0.625 1.875 0 0 Z " fill="#59BDD6" transform="translate(74,245)"/>
<path d="M0 0 C0.99 0 1.98 0 3 0 C2.34 3.63 1.68 7.26 1 11 C0.34 11 -0.32 11 -1 11 C-1.125 3.375 -1.125 3.375 0 0 Z " fill="#5CBDD6" transform="translate(258,175)"/>
<path d="M0 0 C-0.54074373 3.78520613 -2.07572746 5.59177555 -5 8 C-5.99 8 -6.98 8 -8 8 C-6.48291727 4.46014029 -4.24676932 0 0 0 Z " fill="#EF3569" transform="translate(274,198)"/>
<path d="M0 0 C0.99 0 1.98 0 3 0 C3 3.63 3 7.26 3 11 C2.34 11 1.68 11 1 11 C0.67 7.37 0.34 3.74 0 0 Z " fill="#56BDD6" transform="translate(284,218)"/>
<path d="M0 0 C0.99 0 1.98 0 3 0 C2.67 2.97 2.34 5.94 2 9 C1.01 9 0.02 9 -1 9 C-0.67 6.03 -0.34 3.06 0 0 Z " fill="#63BDD6" transform="translate(262,175)"/>
<path d="M0 0 C4.455 0.99 4.455 0.99 9 2 C9 2.99 9 3.98 9 5 C4.545 4.01 4.545 4.01 0 3 C0 2.01 0 1.02 0 0 Z " fill="#63BDD6" transform="translate(245,178)"/>
<path d="M0 0 C3.465 1.98 3.465 1.98 7 4 C7 4.33 7 4.66 7 5 C4.36 5 1.72 5 -1 5 C-0.67 3.35 -0.34 1.7 0 0 Z " fill="#E02C61" transform="translate(264,347)"/>
<path d="M0 0 C5.75 0.875 5.75 0.875 8 2 C8 2.99 8 3.98 8 5 C4.62537285 4.45276317 2.91765 3.9451 0 2 C0 1.34 0 0.68 0 0 Z " fill="#EF3569" transform="translate(244,200)"/>
<path d="M0 0 C0.99 0.33 1.98 0.66 3 1 C2.67 2.65 2.34 4.3 2 6 C0.68 5.67 -0.64 5.34 -2 5 C-1.125 1.125 -1.125 1.125 0 0 Z " fill="#FDEBD9" transform="translate(271,186)"/>
<path d="M0 0 C-0.33 0.99 -0.66 1.98 -1 3 C-3.31 3 -5.62 3 -8 3 C-8 2.01 -8 1.02 -8 0 C-5.13822943 -1.43088528 -3.06624227 -0.59991697 0 0 Z " fill="#6DBDD6" transform="translate(275,179)"/>
<path d="M0 0 C3.36591866 1.44253657 5.51047079 3.33264727 8 6 C7.01 6.495 7.01 6.495 6 7 C3.69 5.35 1.38 3.7 -1 2 C-0.67 1.34 -0.34 0.68 0 0 Z " fill="#F6A7C0" transform="translate(276,321)"/>
<path d="M0 0 C3.99500618 1.3697164 6.80009492 3.25722422 10 6 C5.8333396 5.52651586 3.07115285 4.95303159 0 2 C0 1.34 0 0.68 0 0 Z " fill="#F6ADC4" transform="translate(264,345)"/>
<path d="M0 0 C1.98 0.495 1.98 0.495 4 1 C3.67 2.32 3.34 3.64 3 5 C1.68 4.67 0.36 4.34 -1 4 C-0.67 2.68 -0.34 1.36 0 0 Z " fill="#FDEBD9" transform="translate(264,190)"/>
<path d="M0 0 C1.98 0.495 1.98 0.495 4 1 C3.67 2.32 3.34 3.64 3 5 C1.68 4.67 0.36 4.34 -1 4 C-0.67 2.68 -0.34 1.36 0 0 Z " fill="#FDF0D9" transform="translate(233,187)"/>
<path d="M0 0 C4.98777148 2.49388574 5.51258849 4.20284924 8 9 C7.01 9 6.02 9 5 9 C3.35 6.03 1.7 3.06 0 0 Z " fill="#F1507E" transform="translate(249,184)"/>
<path d="M0 0 C0.66 0 1.32 0 2 0 C0.73058503 3.91402949 -0.51167694 5.79072873 -4 8 C-2.87548273 5.0280615 -1.77706209 2.66559313 0 0 Z " fill="#FDE8D2" transform="translate(229,334)"/>
<path d="M0 0 C0.99 0.33 1.98 0.66 3 1 C2.67 2.32 2.34 3.64 2 5 C1.01 5 0.02 5 -1 5 C-0.67 3.35 -0.34 1.7 0 0 Z " fill="#FDF0D9" transform="translate(243,190)"/>
</svg>
